<svg viewBox="0 0 512 512" xmlns="http://www.w3.org/2000/svg">
  <!-- Soft background -->
  <rect width="512" height="512" rx="80" fill="#f5f1ed"/>
  
  <!-- Soft shadow -->
  <ellipse cx="256" cy="480" rx="140" ry="20" fill="#e8e0d8" opacity="0.3"/>
  
  <!-- T-shirt body -->
  <path d="M 160 180 L 200 140 L 220 140 L 240 160 L 256 150 L 272 160 L 292 140 L 312 140 L 352 180 L 320 440 Q 320 460 300 460 L 212 460 Q 192 460 192 440 Z" fill="#9dd4c3"/>
  
  <!-- T-shirt left sleeve -->
  <ellipse cx="130" cy="200" rx="40" ry="60" fill="#9dd4c3"/>
  
  <!-- T-shirt right sleeve -->
  <ellipse cx="382" cy="200" rx="40" ry="60" fill="#9dd4c3"/>
  
  <!-- Neckline highlight -->
  <ellipse cx="256" cy="155" rx="50" ry="15" fill="#b5e5d0" opacity="0.5"/>
  
  <!-- Subtle fold on chest -->
  <path d="M 220 200 Q 240 220 256 230 Q 272 220 292 200" fill="none" stroke="#8fc9b5" stroke-width="8" stroke-linecap="round" opacity="0.4"/>
  
  <!-- Color variation - pattern band -->
  <rect x="180" y="240" width="152" height="40" fill="#b5e5d0" opacity="0.3"/>
  
  <!-- Depth shadow on sleeves -->
  <ellipse cx="130" cy="200" rx="35" ry="60" fill="#7db59c" opacity="0.15"/>
  <ellipse cx="382" cy="200" rx="35" ry="60" fill="#7db59c" opacity="0.15"/>
</svg>